<svg preserveAspectRatio="xMidYMid meet" data-bbox="-280.1 77.635 1916.934 1693.498" viewBox="0 0 1350.8 1350.8" xmlns="http://www.w3.org/2000/svg" data-type="ugc" role="presentation" aria-hidden="true" aria-label="">
    <g>
        <path fill="#58656c" d="m197.18 597.07 38.81 184.51 70.9-184.51H440.6l70.9 184.51 38.81-184.51h149.12L583.08 945.23H452.69L373.8 721.9l-78.9 223.33H164.51L48.16 597.07z"></path>
        <path d="M1037.32 857.65a404.2 404.2 0 0 1-30.05 87.58H660.62c38.78-116.05 77.56-232.11 116.35-348.16h129.89c-29.03 86.86-58.05 173.72-87.08 260.59h217.54Z" fill="#869ab2"></path>
        <path d="M1236.84 954.62c-56.97 84.58-137.03 149.53-231.54 187.84-12.68 5.14-25.51 9.72-38.46 13.81-1.21.39-2.43.75-3.65 1.13-2.41.74-4.82 1.47-7.23 2.18-79.38 23.66-163.65 27.33-245.2 10.15a499 499 0 0 1-53.88-14.55c-77.46-24.92-147.62-67.9-205.42-126.13H242.2a591.3 591.3 0 0 0 295.57 215.07 591.3 591.3 0 0 0 365.55.18 591.24 591.24 0 0 0 295.79-214.77 591.4 591.4 0 0 0 76.71-143.73c-11.14 23.76-24.12 46.77-38.97 68.82Z" fill="#58656c"></path>
        <path d="M723.9 171.91c-118.2-18.93-239.63 4.95-341.87 67.25-97.57 59.45-172.05 150.44-211.15 257.48h138.33c39.05-93.49 109.11-171.53 198.03-220.36 91.28-50.12 197.88-66.97 300.15-47.42 78.04 14.91 150.6 50.43 210.09 102.08-76.79-84.64-180.45-140.91-293.58-159.02Z" fill="#58656c"></path>
        <path d="M1171.81 669.5h-.22c-2.19 79.37-25.32 156.66-67.3 224.27-44.16 71.11-107.17 128.32-182.21 165.44-75.04 37.11-158.76 52.47-242.08 44.41a448.8 448.8 0 0 1-102.94-22.36c42.91 24.17 89.51 41.77 138.5 52.09 95.16 20.05 193.09 11.34 283.21-25.2 90.13-36.54 166.48-98.48 220.81-179.14 54.33-80.65 83.05-174.68 83.05-271.93a579.36 579.36 0 0 0-142.47-380.53C1068.29 171.06 941.4 102.36 802.84 83.14a579.4 579.4 0 0 0-396.5 88.79c-31.11 20.32-60 43.45-86.35 68.98a527 527 0 0 1 49.72-34.36c107.05-65.22 234.16-90.21 357.92-70.41 123.78 19.82 236.73 83.27 318.06 178.65 81.32 95.39 126.11 216.94 126.11 342.29 0 2.31-.09 4.62-.12 6.93.02 1.78.12 3.56.12 5.34v.15Z" fill="#869ab2"></path>
        <text transform="matrix(1.34 0 0 1 -280.1 1718.67)" fill="#58656c" font-family="Indivisible-Black,Indivisible" font-size="244.88" font-weight="800" letter-spacing="-.03em"><tspan y="0" x="0">WHEELOCK</tspan></text>
    </g>
</svg>